<svg width="19" height="19" viewBox="0 0 19 19" fill="none" xmlns="http://www.w3.org/2000/svg">
<path d="M3.08826 5.68336L9.83339 9.58682L16.5327 5.70625" stroke="#596780" stroke-width="1.66667" stroke-linecap="round" stroke-linejoin="round"/>
<path d="M9.83337 16.5076V9.57917" stroke="#596780" stroke-width="1.66667" stroke-linecap="round" stroke-linejoin="round"/>
<path d="M8.25214 1.89446L4.17297 4.16324C3.24867 4.67504 2.49243 5.95836 2.49243 7.01253V11.3285C2.49243 12.3827 3.24867 13.666 4.17297 14.1778L8.25214 16.4466C9.12297 16.9278 10.5514 16.9278 11.4223 16.4466L15.5015 14.1778C16.4258 13.666 17.182 12.3827 17.182 11.3285V7.01253C17.182 5.95836 16.4258 4.67504 15.5015 4.16324L11.4223 1.89446C10.5438 1.40558 9.12297 1.40558 8.25214 1.89446Z" stroke="#596780" stroke-width="1.66667" stroke-linecap="round" stroke-linejoin="round"/>
<path d="M13.6529 10.1139V7.31809L6.40356 3.13194" stroke="#596780" stroke-width="1.25" stroke-linecap="round" stroke-linejoin="round"/>
</svg>
