<svg width="19" height="19" viewBox="0 0 19 19" fill="none" xmlns="http://www.w3.org/2000/svg">
<path d="M2.57642 10.7806V9.45906C2.57642 7.87781 3.86738 6.58683 5.44863 6.58683H14.2181C15.7993 6.58683 17.0903 7.87781 17.0903 9.45906V10.5591H15.5472C15.1195 10.5591 14.7299 10.7271 14.4472 11.0174C14.1264 11.3306 13.9431 11.7813 13.9889 12.2625C14.0577 13.0875 14.8139 13.691 15.6389 13.691H17.0903V14.6C17.0903 16.1813 15.7993 17.4722 14.2181 17.4722H10.032" stroke="#596780" stroke-width="1.66667" stroke-linecap="round" stroke-linejoin="round"/>
<path d="M2.57642 10.1465V6.65561C2.57642 5.74658 3.13405 4.93683 3.98197 4.61599L10.0472 2.32433C10.9945 1.9653 12.0104 2.6681 12.0104 3.68407V6.58684" stroke="#596780" stroke-width="1.66667" stroke-linecap="round" stroke-linejoin="round"/>
<path d="M17.8992 11.3383V12.912C17.8992 13.3321 17.563 13.6758 17.1353 13.6911H15.6381C14.8131 13.6911 14.0568 13.0877 13.988 12.2627C13.9422 11.7814 14.1255 11.3307 14.4464 11.0175C14.729 10.7272 15.1186 10.5592 15.5464 10.5592H17.1353C17.563 10.5745 17.8992 10.9182 17.8992 11.3383Z" stroke="#596780" stroke-width="1.66667" stroke-linecap="round" stroke-linejoin="round"/>
<path d="M6.01392 9.83336H11.3611" stroke="#596780" stroke-width="1.25" stroke-linecap="round" stroke-linejoin="round"/>
<path d="M2.95837 13.2709H7.03754C7.52643 13.2709 7.92365 13.6681 7.92365 14.1569V15.1348" stroke="#596780" stroke-width="1.25" stroke-miterlimit="10" stroke-linecap="round" stroke-linejoin="round"/>
<path d="M3.89032 12.3389L2.95837 13.2709L3.89032 14.2028" stroke="#596780" stroke-width="1.25" stroke-miterlimit="10" stroke-linecap="round" stroke-linejoin="round"/>
<path d="M7.92365 17.3042H3.84449C3.3556 17.3042 2.95837 16.907 2.95837 16.4181V15.4403" stroke="#596780" stroke-width="1.25" stroke-miterlimit="10" stroke-linecap="round" stroke-linejoin="round"/>
<path d="M6.9928 18.2364L7.92474 17.3044L6.9928 16.3725" stroke="#596780" stroke-width="1.25" stroke-miterlimit="10" stroke-linecap="round" stroke-linejoin="round"/>
</svg>
