<svg width="19" height="19" viewBox="0 0 19 19" fill="none" xmlns="http://www.w3.org/2000/svg">
<path d="M8.36005 2.43345L8.36037 2.4332C9.17576 1.77831 10.4871 1.7819 11.3153 2.44169C11.3154 2.44173 11.3154 2.44178 11.3155 2.44183L16.3167 6.44284C16.5992 6.67361 16.8455 7.03648 17.0049 7.45341C17.164 7.87002 17.2227 8.30508 17.1679 8.66538L16.2063 14.4197C16.2062 14.4201 16.2062 14.4205 16.2061 14.4208C16.0182 15.499 14.9675 16.3889 13.8821 16.3889H5.78487C4.68323 16.3889 3.65643 15.5209 3.4686 14.429C3.46855 14.4287 3.4685 14.4284 3.46845 14.4281L2.50626 8.67021L2.50609 8.66926C2.44458 8.30635 2.4996 7.87051 2.65839 7.45411C2.81716 7.03775 3.06656 6.67527 3.35585 6.44445L3.35657 6.44387L8.36005 2.43345ZM9.83348 14.7396C10.3768 14.7396 10.8231 14.2933 10.8231 13.75V11.4583C10.8231 10.915 10.3768 10.4688 9.83348 10.4688C9.29017 10.4688 8.8439 10.915 8.8439 11.4583V13.75C8.8439 14.2933 9.29017 14.7396 9.83348 14.7396Z" fill="white" stroke="white" stroke-width="0.833333"/>
</svg>
