<svg width="20" height="20" viewBox="0 0 20 20" fill="none" xmlns="http://www.w3.org/2000/svg">
<path d="M7.92065 11.6476C7.92065 12.4222 8.51962 13.0452 9.25435 13.0452H10.7557C11.3946 13.0452 11.9137 12.5021 11.9137 11.8233C11.9137 11.0965 11.5943 10.833 11.1231 10.6653L8.71927 9.82675C8.24808 9.65904 7.92865 9.40349 7.92865 8.66877C7.92865 7.99793 8.44773 7.44689 9.08662 7.44689H10.588C11.3227 7.44689 11.9217 8.06981 11.9217 8.84446" stroke="#1A202C" stroke-width="1.25" stroke-linecap="round" stroke-linejoin="round"/>
<path d="M9.91699 6.65626V13.8438" stroke="#1A202C" stroke-width="1.25" stroke-linecap="round" stroke-linejoin="round"/>
<path d="M17.9034 10.25C17.9034 14.6583 14.3256 18.2361 9.91727 18.2361C5.50893 18.2361 1.93115 14.6583 1.93115 10.25C1.93115 5.84168 5.50893 2.2639 9.91727 2.2639" stroke="#1A202C" stroke-width="1.25" stroke-linecap="round" stroke-linejoin="round"/>
<path d="M17.9032 5.45835V2.2639H14.7087" stroke="#1A202C" stroke-width="1.25" stroke-linecap="round" stroke-linejoin="round"/>
<path d="M13.9102 6.25696L17.9032 2.2639" stroke="#1A202C" stroke-width="1.25" stroke-linecap="round" stroke-linejoin="round"/>
</svg>
