<svg width="20" height="20" viewBox="0 0 20 20" fill="none" xmlns="http://www.w3.org/2000/svg">
<path d="M8.25391 11.6476C8.25391 12.4222 8.85288 13.0452 9.5876 13.0452H11.089C11.7279 13.0452 12.247 12.5021 12.247 11.8233C12.247 11.0965 11.9275 10.833 11.4563 10.6653L9.05252 9.82675C8.58134 9.65904 8.2619 9.40349 8.2619 8.66877C8.2619 7.99793 8.78098 7.44689 9.41987 7.44689H10.9213C11.656 7.44689 12.255 8.06981 12.255 8.84446" stroke="white" stroke-width="1.25" stroke-linecap="round" stroke-linejoin="round"/>
<path d="M10.2502 6.65626V13.8438" stroke="white" stroke-width="1.25" stroke-linecap="round" stroke-linejoin="round"/>
<path d="M18.2366 10.25C18.2366 14.6583 14.6589 18.2361 10.2505 18.2361C5.84218 18.2361 2.2644 14.6583 2.2644 10.25C2.2644 5.84168 5.84218 2.2639 10.2505 2.2639" stroke="white" stroke-width="1.25" stroke-linecap="round" stroke-linejoin="round"/>
<path d="M14.2434 3.06251V6.25696H17.4379" stroke="white" stroke-width="1.25" stroke-linecap="round" stroke-linejoin="round"/>
<path d="M18.2365 2.2639L14.2434 6.25696" stroke="white" stroke-width="1.25" stroke-linecap="round" stroke-linejoin="round"/>
</svg>
