<svg width="21" height="22" viewBox="0 0 21 22" fill="none" xmlns="http://www.w3.org/2000/svg">
<path d="M4.50016 9.01389C3.5835 9.01389 2.8335 9.79514 2.8335 10.75C2.8335 11.7049 3.5835 12.4861 4.50016 12.4861C5.41683 12.4861 6.16683 11.7049 6.16683 10.75C6.16683 9.79514 5.41683 9.01389 4.50016 9.01389Z" stroke="#1A202C" stroke-width="1.25"/>
<path d="M16.1669 9.01389C15.2502 9.01389 14.5002 9.79514 14.5002 10.75C14.5002 11.7049 15.2502 12.4861 16.1669 12.4861C17.0836 12.4861 17.8336 11.7049 17.8336 10.75C17.8336 9.79514 17.0836 9.01389 16.1669 9.01389Z" stroke="#1A202C" stroke-width="1.25"/>
<path d="M10.3334 9.01389C9.41675 9.01389 8.66675 9.79514 8.66675 10.75C8.66675 11.7049 9.41675 12.4861 10.3334 12.4861C11.2501 12.4861 12.0001 11.7049 12.0001 10.75C12.0001 9.79514 11.2501 9.01389 10.3334 9.01389Z" stroke="#1A202C" stroke-width="1.25"/>
</svg>
