<svg width="37" height="37" viewBox="0 0 37 37" fill="none" xmlns="http://www.w3.org/2000/svg">
<rect opacity="0.8" x="0.583415" y="0.416667" width="35.8333" height="35.8333" rx="17.9167" fill="white" stroke="#C3D4E9" stroke-width="0.833333"/>
<circle cx="30.5833" cy="6.25001" r="4.58333" fill="#FF4423"/>
<path d="M18.5167 10.7583C15.7584 10.7583 13.5167 13 13.5167 15.7583V18.1667C13.5167 18.675 13.3001 19.45 13.0417 19.8833L12.0834 21.475C11.4917 22.4583 11.9001 23.55 12.9834 23.9167C16.5751 25.1167 20.4501 25.1167 24.0417 23.9167C25.0501 23.5833 25.4917 22.3917 24.9417 21.475L23.9834 19.8833C23.7334 19.45 23.5167 18.675 23.5167 18.1667V15.7583C23.5167 13.0083 21.2667 10.7583 18.5167 10.7583Z" stroke="#292D32" stroke-width="1.25" stroke-miterlimit="10" stroke-linecap="round"/>
<path d="M20.0582 11C19.7999 10.925 19.5332 10.8667 19.2582 10.8333C18.4582 10.7333 17.6915 10.7917 16.9749 11C17.2165 10.3833 17.8165 9.95 18.5165 9.95C19.2165 9.95 19.8165 10.3833 20.0582 11Z" stroke="#292D32" stroke-width="1.25" stroke-miterlimit="10" stroke-linecap="round" stroke-linejoin="round"/>
<path d="M21.0166 24.2167C21.0166 25.5917 19.8916 26.7167 18.5166 26.7167C17.8333 26.7167 17.1999 26.4333 16.7499 25.9833C16.2999 25.5333 16.0166 24.9 16.0166 24.2167" stroke="#292D32" stroke-width="1.25" stroke-miterlimit="10"/>
</svg>
