<svg width="120" height="27" viewBox="0 0 120 27" fill="none" xmlns="http://www.w3.org/2000/svg">
<g clip-path="url(#clip0_55_4356)">
<path d="M16.6155 19.8638C16.492 19.9873 16.3454 20.0853 16.184 20.1522C16.0226 20.2191 15.8496 20.2535 15.6749 20.2535C15.5002 20.2535 15.3273 20.2191 15.1659 20.1522C15.0045 20.0853 14.8579 19.9873 14.7344 19.8638L7.08272 12.2133C5.97913 11.0872 5.36455 9.57111 5.37251 7.99442C5.38048 6.41774 6.01034 4.9079 7.12524 3.793C8.24014 2.6781 9.74998 2.04823 11.3267 2.04027C12.9034 2.0323 14.4195 2.64689 15.5456 3.75047L20.3815 8.58639C20.6303 8.83649 20.7696 9.17519 20.7687 9.52798C20.7678 9.88077 20.6268 10.2188 20.3767 10.4676C20.1266 10.7164 19.7879 10.8557 19.4351 10.8548C19.0823 10.8538 18.7443 10.7128 18.4955 10.4627L13.6656 5.62681C13.0416 5.00284 12.1954 4.6523 11.3129 4.6523C10.4305 4.6523 9.58423 5.00284 8.96026 5.62681C8.33629 6.25078 7.98575 7.09706 7.98575 7.97949C7.98575 8.86191 8.33629 9.70819 8.96026 10.3322L16.6119 17.9838C16.8616 18.2327 17.0022 18.5705 17.0028 18.923C17.0035 19.2756 16.8642 19.6139 16.6155 19.8638Z" fill="black"/>
<path d="M20.3345 23.5827C19.2113 24.7031 17.6895 25.3323 16.1031 25.3323C14.5166 25.3323 12.9949 24.7031 11.8716 23.5827L7.04175 18.7468C6.90772 18.6259 6.79971 18.479 6.72429 18.315C6.64888 18.151 6.60764 17.9734 6.60308 17.7929C6.59853 17.6125 6.63076 17.433 6.69781 17.2654C6.76486 17.0978 6.86532 16.9456 6.99308 16.8181C7.12084 16.6906 7.27322 16.5904 7.44095 16.5237C7.60867 16.4569 7.78821 16.4251 7.96865 16.43C8.14909 16.4349 8.32665 16.4765 8.4905 16.5522C8.65435 16.6279 8.80107 16.7362 8.92172 16.8705L13.7516 21.7064C14.3765 22.323 15.2199 22.6674 16.0978 22.6645C16.9757 22.6615 17.8169 22.3115 18.4376 21.6907C19.0584 21.0699 19.4084 20.2288 19.4114 19.3509C19.4143 18.473 19.0699 17.6296 18.4533 17.0047L10.8017 9.34941C10.5522 9.09995 10.4121 8.76161 10.4121 8.40882C10.4121 8.05603 10.5522 7.71769 10.8017 7.46823C11.0511 7.21877 11.3895 7.07863 11.7423 7.07863C12.0951 7.07863 12.4334 7.21877 12.6829 7.46823L20.3345 15.1199C21.4552 16.2429 22.0846 17.7647 22.0846 19.3513C22.0846 20.9379 21.4552 22.4597 20.3345 23.5827Z" fill="black"/>
</g>
<path d="M44.8467 20.6133C43.7667 20.6133 42.8134 20.42 41.9867 20.0333C41.1601 19.6467 40.5134 19.0933 40.0467 18.3733C39.5801 17.6533 39.3467 16.7867 39.3467 15.7733V15.2133H41.9467V15.7733C41.9467 16.6133 42.2067 17.2467 42.7267 17.6733C43.2467 18.0867 43.9534 18.2933 44.8467 18.2933C45.7534 18.2933 46.4267 18.1133 46.8667 17.7533C47.3201 17.3933 47.5467 16.9333 47.5467 16.3733C47.5467 15.9867 47.4334 15.6733 47.2067 15.4333C46.9934 15.1933 46.6734 15 46.2467 14.8533C45.8334 14.6933 45.3267 14.5467 44.7267 14.4133L44.2667 14.3133C43.3067 14.1 42.4801 13.8333 41.7867 13.5133C41.1067 13.18 40.5801 12.7467 40.2067 12.2133C39.8467 11.68 39.6667 10.9867 39.6667 10.1333C39.6667 9.27999 39.8667 8.55333 40.2667 7.95333C40.6801 7.33999 41.2534 6.87333 41.9867 6.55333C42.7334 6.21999 43.6067 6.05333 44.6067 6.05333C45.6067 6.05333 46.4934 6.22666 47.2667 6.57333C48.0534 6.90666 48.6667 7.41333 49.1067 8.09333C49.5601 8.75999 49.7868 9.59999 49.7868 10.6133V11.2133H47.1867V10.6133C47.1867 10.08 47.0801 9.65333 46.8667 9.33333C46.6667 8.99999 46.3734 8.75999 45.9867 8.61333C45.6001 8.45333 45.1401 8.37333 44.6067 8.37333C43.8067 8.37333 43.2134 8.52666 42.8267 8.83333C42.4534 9.12666 42.2667 9.53333 42.2667 10.0533C42.2667 10.4 42.3534 10.6933 42.5267 10.9333C42.7134 11.1733 42.9867 11.3733 43.3467 11.5333C43.7067 11.6933 44.1667 11.8333 44.7267 11.9533L45.1867 12.0533C46.1867 12.2667 47.0534 12.54 47.7867 12.8733C48.5334 13.2067 49.1134 13.6467 49.5267 14.1933C49.9401 14.74 50.1467 15.44 50.1467 16.2933C50.1467 17.1467 49.9267 17.9 49.4867 18.5533C49.0601 19.1933 48.4467 19.7 47.6467 20.0733C46.8601 20.4333 45.9267 20.6133 44.8467 20.6133ZM51.5957 24.3333V10.4133H54.0757V11.6133H54.4357C54.6623 11.2267 55.0157 10.8867 55.4957 10.5933C55.9757 10.2867 56.6623 10.1333 57.5557 10.1333C58.3557 10.1333 59.0957 10.3333 59.7757 10.7333C60.4557 11.12 61.0023 11.6933 61.4157 12.4533C61.829 13.2133 62.0357 14.1333 62.0357 15.2133V15.5333C62.0357 16.6133 61.829 17.5333 61.4157 18.2933C61.0023 19.0533 60.4557 19.6333 59.7757 20.0333C59.0957 20.42 58.3557 20.6133 57.5557 20.6133C56.9557 20.6133 56.449 20.54 56.0357 20.3933C55.6357 20.26 55.309 20.0867 55.0557 19.8733C54.8157 19.6467 54.6223 19.42 54.4757 19.1933H54.1157V24.3333H51.5957ZM56.7957 18.4133C57.5823 18.4133 58.229 18.1667 58.7357 17.6733C59.2557 17.1667 59.5157 16.4333 59.5157 15.4733V15.2733C59.5157 14.3133 59.2557 13.5867 58.7357 13.0933C58.2157 12.5867 57.569 12.3333 56.7957 12.3333C56.0223 12.3333 55.3757 12.5867 54.8557 13.0933C54.3357 13.5867 54.0757 14.3133 54.0757 15.2733V15.4733C54.0757 16.4333 54.3357 17.1667 54.8557 17.6733C55.3757 18.1667 56.0223 18.4133 56.7957 18.4133ZM68.2696 20.6133C67.2829 20.6133 66.4096 20.4067 65.6496 19.9933C64.9029 19.5667 64.3162 18.9733 63.8896 18.2133C63.4762 17.44 63.2696 16.5333 63.2696 15.4933V15.2533C63.2696 14.2133 63.4762 13.3133 63.8896 12.5533C64.3029 11.78 64.8829 11.1867 65.6296 10.7733C66.3762 10.3467 67.2429 10.1333 68.2296 10.1333C69.2029 10.1333 70.0496 10.3533 70.7696 10.7933C71.4896 11.22 72.0496 11.82 72.4496 12.5933C72.8496 13.3533 73.0496 14.24 73.0496 15.2533V16.1133H65.8296C65.8562 16.7933 66.1096 17.3467 66.5896 17.7733C67.0696 18.2 67.6562 18.4133 68.3496 18.4133C69.0562 18.4133 69.5762 18.26 69.9096 17.9533C70.2429 17.6467 70.4962 17.3067 70.6696 16.9333L72.7296 18.0133C72.5429 18.36 72.2696 18.74 71.9096 19.1533C71.5629 19.5533 71.0962 19.9 70.5096 20.1933C69.9229 20.4733 69.1762 20.6133 68.2696 20.6133ZM65.8496 14.2333H70.4896C70.4362 13.66 70.2029 13.2 69.7896 12.8533C69.3896 12.5067 68.8629 12.3333 68.2096 12.3333C67.5296 12.3333 66.9896 12.5067 66.5896 12.8533C66.1896 13.2 65.9429 13.66 65.8496 14.2333ZM74.6925 20.3333V10.4133H77.1725V11.7133H77.5325C77.6925 11.3667 77.9925 11.04 78.4325 10.7333C78.8725 10.4133 79.5392 10.2533 80.4325 10.2533C81.2059 10.2533 81.8792 10.4333 82.4525 10.7933C83.0392 11.14 83.4925 11.6267 83.8125 12.2533C84.1325 12.8667 84.2925 13.5867 84.2925 14.4133V20.3333H81.7725V14.6133C81.7725 13.8667 81.5859 13.3067 81.2125 12.9333C80.8525 12.56 80.3325 12.3733 79.6525 12.3733C78.8792 12.3733 78.2792 12.6333 77.8525 13.1533C77.4259 13.66 77.2125 14.3733 77.2125 15.2933V20.3333H74.6925ZM90.4168 20.6133C89.6301 20.6133 88.8901 20.42 88.1968 20.0333C87.5168 19.6333 86.9701 19.0533 86.5568 18.2933C86.1434 17.5333 85.9368 16.6133 85.9368 15.5333V15.2133C85.9368 14.1333 86.1434 13.2133 86.5568 12.4533C86.9701 11.6933 87.5168 11.12 88.1968 10.7333C88.8768 10.3333 89.6168 10.1333 90.4168 10.1333C91.0168 10.1333 91.5168 10.2067 91.9168 10.3533C92.3301 10.4867 92.6634 10.66 92.9168 10.8733C93.1701 11.0867 93.3634 11.3133 93.4968 11.5533H93.8568V6.33333H96.3768V20.3333H93.8968V19.1333H93.5368C93.3101 19.5067 92.9568 19.8467 92.4768 20.1533C92.0101 20.46 91.3234 20.6133 90.4168 20.6133ZM91.1768 18.4133C91.9501 18.4133 92.5968 18.1667 93.1168 17.6733C93.6368 17.1667 93.8968 16.4333 93.8968 15.4733V15.2733C93.8968 14.3133 93.6368 13.5867 93.1168 13.0933C92.6101 12.5867 91.9634 12.3333 91.1768 12.3333C90.4034 12.3333 89.7568 12.5867 89.2368 13.0933C88.7168 13.5867 88.4568 14.3133 88.4568 15.2733V15.4733C88.4568 16.4333 88.7168 17.1667 89.2368 17.6733C89.7568 18.1667 90.4034 18.4133 91.1768 18.4133ZM100.151 20.6133C99.6173 20.6133 99.164 20.44 98.7907 20.0933C98.4307 19.7333 98.2507 19.2733 98.2507 18.7133C98.2507 18.1533 98.4307 17.7 98.7907 17.3533C99.164 16.9933 99.6173 16.8133 100.151 16.8133C100.697 16.8133 101.151 16.9933 101.511 17.3533C101.871 17.7 102.051 18.1533 102.051 18.7133C102.051 19.2733 101.871 19.7333 101.511 20.0933C101.151 20.44 100.697 20.6133 100.151 20.6133ZM103.848 20.3333V6.33333H106.488V20.3333H103.848ZM108.601 20.3333V10.4133H111.081V11.7133H111.441C111.601 11.3667 111.901 11.04 112.341 10.7333C112.781 10.4133 113.448 10.2533 114.341 10.2533C115.114 10.2533 115.788 10.4333 116.361 10.7933C116.948 11.14 117.401 11.6267 117.721 12.2533C118.041 12.8667 118.201 13.5867 118.201 14.4133V20.3333H115.681V14.6133C115.681 13.8667 115.494 13.3067 115.121 12.9333C114.761 12.56 114.241 12.3733 113.561 12.3733C112.788 12.3733 112.188 12.6333 111.761 13.1533C111.334 13.66 111.121 14.3733 111.121 15.2933V20.3333H108.601Z" fill="black"/>
<defs>
<clipPath id="clip0_55_4356">
<rect width="16.7504" height="23.3333" fill="white" transform="translate(5.33337 2.00002)"/>
</clipPath>
</defs>
</svg>
